<?xml version="1.0" standalone="no"?>
<!DOCTYPE svg PUBLIC "-//W3C//DTD SVG 20010904//EN"
 "http://www.w3.org/TR/2001/REC-SVG-20010904/DTD/svg10.dtd">
<svg version="1.0" xmlns="http://www.w3.org/2000/svg"
 width="72.000000pt" height="72.000000pt" viewBox="0 0 72.000000 72.000000"
 preserveAspectRatio="xMidYMid meet">
<metadata>
Created by potrace 1.10, written by Peter Selinger 2001-2011
</metadata>
<g transform="translate(0.000000,72.000000) scale(0.050000,-0.050000)"
fill="#000000" stroke="none">
<path d="M1304 1390 c-29 -64 28 -134 95 -116 73 19 59 166 -16 166 -41 0 -63
-14 -79 -50z"/>
<path d="M998 1153 c-78 -39 -109 -114 -76 -184 59 -122 226 -109 261 21 30
108 -87 211 -185 163z"/>
<path d="M370 901 c-135 -33 -287 -156 -320 -260 -7 -22 -21 -41 -31 -41 -11
0 -19 -73 -19 -161 0 -103 7 -157 20 -149 11 7 20 0 20 -14 0 -15 14 -47 32
-72 l31 -45 68 85 c58 74 66 95 56 166 -23 165 96 310 255 310 59 0 82 14 134
78 l63 79 -100 21 c-111 24 -122 24 -209 3z"/>
<path d="M810 575 c-69 -56 -81 -77 -84 -150 -7 -162 -128 -261 -293 -239
-123 17 -255 -84 -192 -147 43 -43 396 -59 445 -20 204 163 253 245 253 421 1
213 -14 228 -129 135z"/>
</g>
</svg>
